<?xml version="1.0" encoding="UTF-8"?>
<svg xmlns="http://www.w3.org/2000/svg" id="Capa_2" viewBox="0 0 633.84 79.31">
  <defs>
    <style>.cls-1{fill:#f9b513;}.cls-1,.cls-2{stroke-width:0px;}.cls-2{fill:#fff;}</style>
  </defs>
  <g id="Capa_1-2">
    <path class="cls-2" d="M111.28,21.69l-10.3,37.9c-.18.67.32,1.33,1.01,1.33h6.3c.47,0,.89-.32,1.01-.77l1.85-6.75c.12-.46.54-.77,1.01-.77h12.19c.47,0,.89.32,1.01.77l1.85,6.75c.12.46.54.77,1.01.77h6.96c.69,0,1.2-.66,1.01-1.33l-10.35-37.9c-.12-.46-.54-.77-1.01-.77h-12.54c-.47,0-.89.32-1.01.78ZM114.83,44.8c-.69,0-1.2-.66-1.01-1.33l3.52-12.94h1.85l3.52,12.94c.18.67-.32,1.33-1.01,1.33h-6.86Z"></path>
    <path class="cls-2" d="M148.92,20.92h-7.33c-.58,0-1.05.47-1.05,1.05v37.9c0,.58.47,1.05,1.05,1.05h23.09c.58,0,1.05-.47,1.05-1.05v-5.78c0-.58-.47-1.05-1.05-1.05h-13.66c-.58,0-1.05-.47-1.05-1.05v-30.02c0-.58-.47-1.05-1.05-1.05Z"></path>
    <path class="cls-2" d="M180.24,44.26h12.64c.58,0,1.05-.47,1.05-1.05v-5.42c0-.58-.47-1.05-1.05-1.05h-12.64c-.58,0-1.05-.47-1.05-1.05v-5.9c0-.58.47-1.05,1.05-1.05h15.03c.58,0,1.05-.47,1.05-1.05v-5.72c0-.58-.47-1.05-1.05-1.05h-24.41c-.58,0-1.05.47-1.05,1.05v37.9c0,.58.47,1.05,1.05,1.05h24.7c.58,0,1.05-.47,1.05-1.05v-5.72c0-.58-.47-1.05-1.05-1.05h-15.33c-.58,0-1.05-.47-1.05-1.05v-6.74c0-.58.47-1.05,1.05-1.05Z"></path>
    <path class="cls-2" d="M224.79,39.54h-1.37l-5.79-17.9c-.14-.43-.54-.73-1-.73h-13.17c-.58,0-1.05.47-1.05,1.05v37.9c0,.58.47,1.05,1.05,1.05h6.62c.58,0,1.05-.47,1.05-1.05v-27.61h1.37l5.79,17.9c.14.43.54.73,1,.73h8.32c.46,0,.86-.3,1-.73l5.74-17.9h1.43v27.61c0,.58.47,1.05,1.05,1.05h7.09c.58,0,1.05-.47,1.05-1.05V21.97c0-.58-.47-1.05-1.05-1.05h-12.28c-.45,0-.86.29-1,.72l-5.85,17.9Z"></path>
    <path class="cls-2" d="M275.84,11.8h-6.72c-.31,0-.61.14-.8.38l-4.38,5.31c-.56.68-.08,1.7.8,1.7h5.31c.26,0,.51-.1.7-.27l5.78-5.31c.7-.64.24-1.81-.7-1.81Z"></path>
    <path class="cls-2" d="M259.31,21.69l-10.3,37.9c-.18.67.32,1.33,1.01,1.33h6.3c.47,0,.89-.32,1.01-.77l1.85-6.75c.12-.46.54-.77,1.01-.77h12.19c.47,0,.89.32,1.01.77l1.85,6.75c.12.46.54.77,1.01.77h6.96c.69,0,1.2-.66,1.01-1.33l-10.35-37.9c-.12-.46-.54-.77-1.01-.77h-12.54c-.47,0-.89.32-1.01.78ZM262.86,44.8c-.69,0-1.2-.66-1.01-1.33l3.52-12.94h1.85l3.52,12.94c.18.67-.32,1.33-1.01,1.33h-6.86Z"></path>
    <path class="cls-2" d="M313.96,47.01h-1.19l-11.96-25.49c-.17-.37-.54-.6-.95-.6h-10.28c-.58,0-1.05.47-1.05,1.05v37.9c0,.58.47,1.05,1.05,1.05h6.2c.58,0,1.05-.47,1.05-1.05v-25.04h1.25l11.96,25.48c.17.37.54.6.95.6h10.28c.58,0,1.05-.47,1.05-1.05V21.97c0-.58-.47-1.05-1.05-1.05h-6.26c-.58,0-1.05.47-1.05,1.05v25.04Z"></path>
    <path class="cls-2" d="M362.35,20.92c-.4,0-.76.22-.94.58l-6.63,13.1h-2.09l-6.81-13.11c-.18-.35-.54-.57-.93-.57h-7.28c-.79,0-1.3.85-.93,1.55l12.12,22.58c.08.15.12.32.12.5v14.33c0,.58.47,1.05,1.05,1.05h7.27c.58,0,1.05-.47,1.05-1.05v-14.34c0-.17.04-.33.12-.48l11.58-22.6c.36-.7-.15-1.53-.94-1.53h-6.77Z"></path>
    <path class="cls-2" d="M401.01,20.92h-14.98c-.43,0-.78.35-.78.78v38.45c0,.43.35.78.78.78h7.88c.43,0,.78-.35.78-.78v-11.58c0-.43.35-.78.78-.78h5.55c10.33,0,14.21-4.36,14.21-11.94v-2.99c0-7.58-3.82-11.94-14.21-11.94ZM405.79,35.49c0,3.16-1.61,4.42-5.31,4.42h-5.01c-.43,0-.78-.35-.78-.78v-9.55c0-.43.35-.78.78-.78h5.01c3.7,0,5.31,1.19,5.31,4.42v2.27Z"></path>
    <path class="cls-2" d="M426.1,21.51l-10.44,38.43c-.13.49.24.98.75.98h6.87c.35,0,.66-.23.75-.57l1.96-7.15c.09-.34.4-.57.75-.57h12.6c.35,0,.66.23.75.57l1.96,7.15c.09.34.4.57.75.57h7.52c.51,0,.88-.49.75-.98l-10.5-38.43c-.09-.34-.4-.57-.75-.57h-12.96c-.35,0-.66.23-.75.57ZM429.24,44.81c-.51,0-.88-.49-.75-.98l3.61-13.28h1.85l3.61,13.28c.13.49-.24.98-.75.98h-7.58Z"></path>
    <path class="cls-2" d="M455.04,28.85h17.6c.43,0,.78.35.78.78v17.59c0,3.6-1.8,5.29-4.87,5.29h-.48c-3.06,0-4.81-1.68-4.81-5.29v-4.75c0-.43-.35-.78-.78-.78h-7.93c-.43,0-.78.35-.78.78v4.51c0,9.31,4.87,13.94,14.24,13.94h.72c9.31,0,14.12-4.69,14.12-13.94v-25.28c0-.43-.35-.78-.78-.78h-27.03c-.43,0-.78.35-.78.78v6.37c0,.43.35.78.78.78Z"></path>
    <path class="cls-2" d="M496.26,21.49l-10.44,38.45c-.13.49.24.98.75.98h6.87c.35,0,.66-.23.75-.57l1.96-7.15c.09-.34.4-.57.75-.57h12.61c.35,0,.66.23.75.57l1.96,7.15c.09.34.4.57.75.57h7.53c.51,0,.88-.49.75-.98l-10.5-38.45c-.09-.34-.4-.57-.75-.57h-12.96c-.35,0-.66.23-.75.57ZM499.4,44.8c-.51,0-.88-.49-.75-.98l3.61-13.29h1.85l3.61,13.29c.13.49-.24.98-.75.98h-7.58Z"></path>
    <path class="cls-2" d="M555.61,34.89v-2.39c0-7.58-4.96-11.58-13.37-11.58h-15.7c-.43,0-.78.35-.78.78v38.45c0,.43.35.78.78.78h7.88c.43,0,.78-.35.78-.78v-12.66c0-.43.35-.78.78-.78h4.51c.31,0,.58.18.71.46l5.92,13.29c.12.28.4.46.71.46h8.21c.56,0,.94-.58.71-1.09l-6.39-14.22c-.16-.36-.02-.76.32-.97,3.2-1.97,4.95-5.3,4.95-9.75ZM546.36,33.69c0,2.97-2.4,5.37-5.37,5.37h-5.02c-.43,0-.78-.35-.78-.78v-9.01c0-.43.35-.78.78-.78h5.19c3.16,0,5.19,1.37,5.19,4.42v.78Z"></path>
    <path class="cls-2" d="M577.86,20.92h-1.57c-8.46,0-15.32,6.86-15.32,15.32v10.11c0,9.51,6.42,14.57,16.06,14.57h.83c9.58,0,15.94-5.06,15.94-14.57v-10.62c0-9.64-6.36-14.81-15.94-14.81ZM584.4,45.63c0,4.46-2.2,6.96-6.6,6.96h-.77c-4.58,0-6.66-2.5-6.66-6.96v-9.43c0-4.4,2.08-6.96,6.66-6.96h1.51c3.24,0,5.86,2.62,5.86,5.86v10.52Z"></path>
    <path class="cls-2" d="M626.25,20.92c-.43,0-.78.35-.78.78v25.32h-1.19l-12.03-25.65c-.13-.27-.4-.45-.7-.45h-10.73c-.43,0-.78.35-.78.78v38.45c0,.43.35.78.78.78h6.75c.43,0,.78-.35.78-.78v-25.31h1.25l12.03,25.64c.13.27.4.45.7.45h10.73c.43,0,.78-.35.78-.78V21.69c0-.43-.35-.78-.78-.78h-6.81Z"></path>
    <path class="cls-2" d="M587.27,11.74h-7.61c-.23,0-.45.1-.6.28l-4.87,5.91c-.42.51-.06,1.27.6,1.27h6.05c.19,0,.38-.07.52-.2l6.43-5.91c.52-.48.18-1.35-.52-1.35Z"></path>
    <path class="cls-1" d="M79.84,0h-35.82c-1.52,0-2.75,1.24-2.75,2.75v15.99h-18.05c-1.52,0-2.75,1.24-2.75,2.76v19.55H2.75c-1.52,0-2.75,1.24-2.75,2.75v2.34c0,1.52,1.24,2.75,2.75,2.75h17.71v20.19c0,1.52,1.24,2.75,2.75,2.75h2.34c1.52,0,2.75-1.24,2.75-2.75v-20.19h12.96v27.64c0,1.52,1.24,2.75,2.75,2.75h13.21c1.52,0,2.75-1.24,2.75-2.75v-27.64h19.86c1.52,0,2.75-1.24,2.75-2.75V2.75c0-1.52-1.24-2.75-2.75-2.75ZM52.14,48.91v22.55h-3.03v-22.55h3.03ZM52.14,26.6v14.45h-3.03v-14.45h3.03ZM57.23,18.75h-8.12V7.85h25.99l.15,33.2h-15.26v-19.55c0-1.52-1.24-2.76-2.75-2.76ZM41.26,26.6v14.45h-12.96v-14.45h12.96Z"></path>
  </g>
</svg>

